G75*
%MOIN*%
%OFA0B0*%
%FSLAX25Y25*%
%IPPOS*%
%LPD*%
%AMOC8*
5,1,8,0,0,1.08239X$1,22.5*
%
%ADD10C,0.00000*%
%ADD11R,0.05906X0.05118*%
%ADD12R,0.04724X0.02165*%
%ADD13R,0.06000X0.02500*%
%ADD14R,0.01969X0.09843*%
%ADD15R,0.07874X0.09843*%
%ADD16R,0.02480X0.03268*%
%ADD17R,0.06693X0.02756*%
%ADD18R,0.05118X0.05906*%
%ADD19R,0.05118X0.06299*%
%ADD20R,0.06299X0.05118*%
%ADD21R,0.01181X0.03898*%
D10*
X0017787Y0009867D02*
X0264913Y0009867D01*
X0265037Y0009869D01*
X0265160Y0009875D01*
X0265284Y0009884D01*
X0265406Y0009898D01*
X0265529Y0009915D01*
X0265651Y0009937D01*
X0265772Y0009962D01*
X0265892Y0009991D01*
X0266011Y0010023D01*
X0266130Y0010060D01*
X0266247Y0010100D01*
X0266362Y0010143D01*
X0266477Y0010191D01*
X0266589Y0010242D01*
X0266700Y0010296D01*
X0266810Y0010354D01*
X0266917Y0010415D01*
X0267023Y0010480D01*
X0267126Y0010548D01*
X0267227Y0010619D01*
X0267326Y0010693D01*
X0267423Y0010770D01*
X0267517Y0010851D01*
X0267608Y0010934D01*
X0267697Y0011020D01*
X0267783Y0011109D01*
X0267866Y0011200D01*
X0267947Y0011294D01*
X0268024Y0011391D01*
X0268098Y0011490D01*
X0268169Y0011591D01*
X0268237Y0011694D01*
X0268302Y0011800D01*
X0268363Y0011907D01*
X0268421Y0012017D01*
X0268475Y0012128D01*
X0268526Y0012240D01*
X0268574Y0012355D01*
X0268617Y0012470D01*
X0268657Y0012587D01*
X0268694Y0012706D01*
X0268726Y0012825D01*
X0268755Y0012945D01*
X0268780Y0013066D01*
X0268802Y0013188D01*
X0268819Y0013311D01*
X0268833Y0013433D01*
X0268842Y0013557D01*
X0268848Y0013680D01*
X0268850Y0013804D01*
X0268850Y0125930D01*
X0268848Y0126054D01*
X0268842Y0126177D01*
X0268833Y0126301D01*
X0268819Y0126423D01*
X0268802Y0126546D01*
X0268780Y0126668D01*
X0268755Y0126789D01*
X0268726Y0126909D01*
X0268694Y0127028D01*
X0268657Y0127147D01*
X0268617Y0127264D01*
X0268574Y0127379D01*
X0268526Y0127494D01*
X0268475Y0127606D01*
X0268421Y0127717D01*
X0268363Y0127827D01*
X0268302Y0127934D01*
X0268237Y0128040D01*
X0268169Y0128143D01*
X0268098Y0128244D01*
X0268024Y0128343D01*
X0267947Y0128440D01*
X0267866Y0128534D01*
X0267783Y0128625D01*
X0267697Y0128714D01*
X0267608Y0128800D01*
X0267517Y0128883D01*
X0267423Y0128964D01*
X0267326Y0129041D01*
X0267227Y0129115D01*
X0267126Y0129186D01*
X0267023Y0129254D01*
X0266917Y0129319D01*
X0266810Y0129380D01*
X0266700Y0129438D01*
X0266589Y0129492D01*
X0266477Y0129543D01*
X0266362Y0129591D01*
X0266247Y0129634D01*
X0266130Y0129674D01*
X0266011Y0129711D01*
X0265892Y0129743D01*
X0265772Y0129772D01*
X0265651Y0129797D01*
X0265529Y0129819D01*
X0265406Y0129836D01*
X0265284Y0129850D01*
X0265160Y0129859D01*
X0265037Y0129865D01*
X0264913Y0129867D01*
X0017787Y0129867D01*
X0013850Y0127180D02*
X0013850Y0015054D01*
X0013833Y0014921D01*
X0013821Y0014788D01*
X0013813Y0014654D01*
X0013808Y0014520D01*
X0013807Y0014386D01*
X0013810Y0014252D01*
X0013817Y0014119D01*
X0013828Y0013985D01*
X0013843Y0013852D01*
X0013862Y0013719D01*
X0013885Y0013587D01*
X0013911Y0013456D01*
X0013941Y0013325D01*
X0013975Y0013196D01*
X0014013Y0013067D01*
X0014054Y0012940D01*
X0014100Y0012814D01*
X0014148Y0012689D01*
X0014201Y0012566D01*
X0014257Y0012444D01*
X0014316Y0012324D01*
X0014379Y0012206D01*
X0014446Y0012090D01*
X0014515Y0011975D01*
X0014588Y0011863D01*
X0014665Y0011753D01*
X0014744Y0011645D01*
X0014826Y0011539D01*
X0014912Y0011436D01*
X0015001Y0011336D01*
X0015092Y0011238D01*
X0015186Y0011143D01*
X0015283Y0011050D01*
X0015383Y0010961D01*
X0015485Y0010874D01*
X0015589Y0010790D01*
X0015697Y0010710D01*
X0015806Y0010632D01*
X0015917Y0010558D01*
X0016031Y0010487D01*
X0016147Y0010420D01*
X0016264Y0010356D01*
X0016384Y0010295D01*
X0016505Y0010238D01*
X0016627Y0010184D01*
X0016752Y0010134D01*
X0016877Y0010087D01*
X0017004Y0010044D01*
X0017132Y0010005D01*
X0017262Y0009970D01*
X0017392Y0009938D01*
X0017523Y0009911D01*
X0017655Y0009887D01*
X0017787Y0009867D01*
X0148417Y0109867D02*
X0148419Y0109951D01*
X0148425Y0110034D01*
X0148435Y0110117D01*
X0148449Y0110200D01*
X0148466Y0110282D01*
X0148488Y0110363D01*
X0148513Y0110442D01*
X0148542Y0110521D01*
X0148575Y0110598D01*
X0148611Y0110673D01*
X0148651Y0110747D01*
X0148694Y0110819D01*
X0148741Y0110888D01*
X0148791Y0110955D01*
X0148844Y0111020D01*
X0148900Y0111082D01*
X0148958Y0111142D01*
X0149020Y0111199D01*
X0149084Y0111252D01*
X0149151Y0111303D01*
X0149220Y0111350D01*
X0149291Y0111395D01*
X0149364Y0111435D01*
X0149439Y0111472D01*
X0149516Y0111506D01*
X0149594Y0111536D01*
X0149673Y0111562D01*
X0149754Y0111585D01*
X0149836Y0111603D01*
X0149918Y0111618D01*
X0150001Y0111629D01*
X0150084Y0111636D01*
X0150168Y0111639D01*
X0150252Y0111638D01*
X0150335Y0111633D01*
X0150419Y0111624D01*
X0150501Y0111611D01*
X0150583Y0111595D01*
X0150664Y0111574D01*
X0150745Y0111550D01*
X0150823Y0111522D01*
X0150901Y0111490D01*
X0150977Y0111454D01*
X0151051Y0111415D01*
X0151123Y0111373D01*
X0151193Y0111327D01*
X0151261Y0111278D01*
X0151326Y0111226D01*
X0151389Y0111171D01*
X0151449Y0111113D01*
X0151507Y0111052D01*
X0151561Y0110988D01*
X0151613Y0110922D01*
X0151661Y0110854D01*
X0151706Y0110783D01*
X0151747Y0110710D01*
X0151786Y0110636D01*
X0151820Y0110560D01*
X0151851Y0110482D01*
X0151878Y0110403D01*
X0151902Y0110322D01*
X0151921Y0110241D01*
X0151937Y0110159D01*
X0151949Y0110076D01*
X0151957Y0109992D01*
X0151961Y0109909D01*
X0151961Y0109825D01*
X0151957Y0109742D01*
X0151949Y0109658D01*
X0151937Y0109575D01*
X0151921Y0109493D01*
X0151902Y0109412D01*
X0151878Y0109331D01*
X0151851Y0109252D01*
X0151820Y0109174D01*
X0151786Y0109098D01*
X0151747Y0109024D01*
X0151706Y0108951D01*
X0151661Y0108880D01*
X0151613Y0108812D01*
X0151561Y0108746D01*
X0151507Y0108682D01*
X0151449Y0108621D01*
X0151389Y0108563D01*
X0151326Y0108508D01*
X0151261Y0108456D01*
X0151193Y0108407D01*
X0151123Y0108361D01*
X0151051Y0108319D01*
X0150977Y0108280D01*
X0150901Y0108244D01*
X0150823Y0108212D01*
X0150745Y0108184D01*
X0150664Y0108160D01*
X0150583Y0108139D01*
X0150501Y0108123D01*
X0150419Y0108110D01*
X0150335Y0108101D01*
X0150252Y0108096D01*
X0150168Y0108095D01*
X0150084Y0108098D01*
X0150001Y0108105D01*
X0149918Y0108116D01*
X0149836Y0108131D01*
X0149754Y0108149D01*
X0149673Y0108172D01*
X0149594Y0108198D01*
X0149516Y0108228D01*
X0149439Y0108262D01*
X0149364Y0108299D01*
X0149291Y0108339D01*
X0149220Y0108384D01*
X0149151Y0108431D01*
X0149084Y0108482D01*
X0149020Y0108535D01*
X0148958Y0108592D01*
X0148900Y0108652D01*
X0148844Y0108714D01*
X0148791Y0108779D01*
X0148741Y0108846D01*
X0148694Y0108915D01*
X0148651Y0108987D01*
X0148611Y0109061D01*
X0148575Y0109136D01*
X0148542Y0109213D01*
X0148513Y0109292D01*
X0148488Y0109371D01*
X0148466Y0109452D01*
X0148449Y0109534D01*
X0148435Y0109617D01*
X0148425Y0109700D01*
X0148419Y0109783D01*
X0148417Y0109867D01*
X0165739Y0109867D02*
X0165741Y0109951D01*
X0165747Y0110034D01*
X0165757Y0110117D01*
X0165771Y0110200D01*
X0165788Y0110282D01*
X0165810Y0110363D01*
X0165835Y0110442D01*
X0165864Y0110521D01*
X0165897Y0110598D01*
X0165933Y0110673D01*
X0165973Y0110747D01*
X0166016Y0110819D01*
X0166063Y0110888D01*
X0166113Y0110955D01*
X0166166Y0111020D01*
X0166222Y0111082D01*
X0166280Y0111142D01*
X0166342Y0111199D01*
X0166406Y0111252D01*
X0166473Y0111303D01*
X0166542Y0111350D01*
X0166613Y0111395D01*
X0166686Y0111435D01*
X0166761Y0111472D01*
X0166838Y0111506D01*
X0166916Y0111536D01*
X0166995Y0111562D01*
X0167076Y0111585D01*
X0167158Y0111603D01*
X0167240Y0111618D01*
X0167323Y0111629D01*
X0167406Y0111636D01*
X0167490Y0111639D01*
X0167574Y0111638D01*
X0167657Y0111633D01*
X0167741Y0111624D01*
X0167823Y0111611D01*
X0167905Y0111595D01*
X0167986Y0111574D01*
X0168067Y0111550D01*
X0168145Y0111522D01*
X0168223Y0111490D01*
X0168299Y0111454D01*
X0168373Y0111415D01*
X0168445Y0111373D01*
X0168515Y0111327D01*
X0168583Y0111278D01*
X0168648Y0111226D01*
X0168711Y0111171D01*
X0168771Y0111113D01*
X0168829Y0111052D01*
X0168883Y0110988D01*
X0168935Y0110922D01*
X0168983Y0110854D01*
X0169028Y0110783D01*
X0169069Y0110710D01*
X0169108Y0110636D01*
X0169142Y0110560D01*
X0169173Y0110482D01*
X0169200Y0110403D01*
X0169224Y0110322D01*
X0169243Y0110241D01*
X0169259Y0110159D01*
X0169271Y0110076D01*
X0169279Y0109992D01*
X0169283Y0109909D01*
X0169283Y0109825D01*
X0169279Y0109742D01*
X0169271Y0109658D01*
X0169259Y0109575D01*
X0169243Y0109493D01*
X0169224Y0109412D01*
X0169200Y0109331D01*
X0169173Y0109252D01*
X0169142Y0109174D01*
X0169108Y0109098D01*
X0169069Y0109024D01*
X0169028Y0108951D01*
X0168983Y0108880D01*
X0168935Y0108812D01*
X0168883Y0108746D01*
X0168829Y0108682D01*
X0168771Y0108621D01*
X0168711Y0108563D01*
X0168648Y0108508D01*
X0168583Y0108456D01*
X0168515Y0108407D01*
X0168445Y0108361D01*
X0168373Y0108319D01*
X0168299Y0108280D01*
X0168223Y0108244D01*
X0168145Y0108212D01*
X0168067Y0108184D01*
X0167986Y0108160D01*
X0167905Y0108139D01*
X0167823Y0108123D01*
X0167741Y0108110D01*
X0167657Y0108101D01*
X0167574Y0108096D01*
X0167490Y0108095D01*
X0167406Y0108098D01*
X0167323Y0108105D01*
X0167240Y0108116D01*
X0167158Y0108131D01*
X0167076Y0108149D01*
X0166995Y0108172D01*
X0166916Y0108198D01*
X0166838Y0108228D01*
X0166761Y0108262D01*
X0166686Y0108299D01*
X0166613Y0108339D01*
X0166542Y0108384D01*
X0166473Y0108431D01*
X0166406Y0108482D01*
X0166342Y0108535D01*
X0166280Y0108592D01*
X0166222Y0108652D01*
X0166166Y0108714D01*
X0166113Y0108779D01*
X0166063Y0108846D01*
X0166016Y0108915D01*
X0165973Y0108987D01*
X0165933Y0109061D01*
X0165897Y0109136D01*
X0165864Y0109213D01*
X0165835Y0109292D01*
X0165810Y0109371D01*
X0165788Y0109452D01*
X0165771Y0109534D01*
X0165757Y0109617D01*
X0165747Y0109700D01*
X0165741Y0109783D01*
X0165739Y0109867D01*
X0017787Y0129867D02*
X0017673Y0129886D01*
X0017559Y0129901D01*
X0017445Y0129913D01*
X0017330Y0129921D01*
X0017215Y0129925D01*
X0017100Y0129924D01*
X0016985Y0129920D01*
X0016870Y0129912D01*
X0016756Y0129900D01*
X0016642Y0129885D01*
X0016528Y0129865D01*
X0016416Y0129841D01*
X0016304Y0129814D01*
X0016193Y0129783D01*
X0016084Y0129748D01*
X0015975Y0129709D01*
X0015868Y0129667D01*
X0015763Y0129621D01*
X0015659Y0129571D01*
X0015557Y0129518D01*
X0015457Y0129462D01*
X0015358Y0129402D01*
X0015262Y0129339D01*
X0015168Y0129272D01*
X0015077Y0129202D01*
X0014988Y0129130D01*
X0014901Y0129054D01*
X0014817Y0128975D01*
X0014736Y0128894D01*
X0014657Y0128810D01*
X0014582Y0128723D01*
X0014509Y0128633D01*
X0014440Y0128542D01*
X0014374Y0128448D01*
X0014311Y0128351D01*
X0014251Y0128253D01*
X0014195Y0128152D01*
X0014142Y0128050D01*
X0014093Y0127946D01*
X0014047Y0127841D01*
X0014005Y0127733D01*
X0013966Y0127625D01*
X0013932Y0127515D01*
X0013901Y0127404D01*
X0013874Y0127293D01*
X0013850Y0127180D01*
D11*
X0197600Y0032357D03*
X0197600Y0024877D03*
X0228850Y0024877D03*
X0228850Y0032357D03*
D12*
X0218344Y0032357D03*
X0208106Y0032357D03*
X0208106Y0028617D03*
X0208106Y0024877D03*
X0218344Y0024877D03*
D13*
X0166335Y0052367D03*
X0166335Y0057367D03*
X0166335Y0062367D03*
X0166335Y0067367D03*
X0166335Y0072367D03*
X0166335Y0077367D03*
X0166335Y0082367D03*
X0166335Y0087367D03*
X0145115Y0087367D03*
X0145115Y0082367D03*
X0145115Y0077367D03*
X0145115Y0072367D03*
X0145115Y0067367D03*
X0145115Y0062367D03*
X0145115Y0057367D03*
X0145115Y0052367D03*
D14*
X0152551Y0100024D03*
X0155700Y0100024D03*
X0158850Y0100024D03*
X0162000Y0100024D03*
X0165149Y0100024D03*
D15*
X0176567Y0100024D03*
X0141133Y0100024D03*
X0141133Y0121678D03*
X0176567Y0121678D03*
D16*
X0178378Y0022367D03*
X0169322Y0022367D03*
D17*
X0177600Y0052017D03*
X0177600Y0056742D03*
X0177600Y0061466D03*
D18*
X0135715Y0081742D03*
X0128235Y0081742D03*
D19*
X0227610Y0084242D03*
X0235090Y0084242D03*
X0235090Y0076117D03*
X0227610Y0076117D03*
X0235110Y0066117D03*
X0242590Y0066117D03*
X0242590Y0057992D03*
X0235110Y0057992D03*
X0235110Y0050492D03*
X0242590Y0050492D03*
D20*
X0167600Y0043607D03*
X0167600Y0036127D03*
X0143850Y0036127D03*
X0143850Y0043607D03*
X0128850Y0056127D03*
X0128850Y0063607D03*
D21*
X0153166Y0043016D03*
X0155725Y0043016D03*
X0158284Y0043016D03*
X0158284Y0036678D03*
X0155725Y0036678D03*
X0153166Y0036678D03*
M02*
