%
M48
M72
T01C0.01969
T02C0.03200
T03C0.04000
T04C0.04700
T05C0.12992
%
T01
X90009Y83700
X100447Y92450
X114022Y96050
X120759Y96825
X118009Y105700
X102009Y105700
X85259Y105813
X75884Y92637
X53947Y103512
X53947Y109512
X53947Y115512
X53947Y121512
X45134Y132250
X39947Y136325
X35259Y141325
X35259Y148825
X43447Y159388
X51509Y152263
X55259Y145075
X60572Y136325
X67134Y128250
X76009Y119700
X75834Y137738
X75572Y148825
X90884Y149046
X90884Y141172
X90572Y137063
X98697Y118512
X112759Y123200
X120884Y123200
X90884Y156920
X90884Y164763
X90852Y164794
X90884Y172575
X90791Y172669
X90884Y181325
X75822Y181325
X75884Y186825
X75572Y172887
X75572Y165388
X107759Y181950
X113459Y192075
X121509Y186825
X116509Y171013
X108697Y166013
X132134Y162263
X40572Y96450
X28697Y109075
X27197Y117200
X36197Y172887
X37134Y181012
X37134Y186825
X17447Y191012
T02
X60872Y48825
X40872Y48825
T03
X22759Y36712
X22759Y56712
X135509Y45387
X136509Y35388
X136509Y55387
X136509Y83700
X135509Y93700
X136509Y103700
X138689Y115823
X139689Y125823
X138689Y135823
X139689Y145823
X138689Y155823
X139689Y165823
X138689Y175823
X139689Y185823
X138689Y195823
X139689Y205823
X138689Y215823
X120009Y216200
X120009Y205200
T04
X81454Y42826
X101139Y42826
T05
X98655Y208802
M30
